<svg width="66" height="66" viewBox="0 0 66 66" fill="none" xmlns="http://www.w3.org/2000/svg">
<path d="M26.5443 59.004H12.8081C11.2717 59.0018 9.79879 58.3905 8.71238 57.3041C7.62596 56.2177 7.01465 54.7448 7.01247 53.2084V14.9284C7.01021 14.1623 7.16041 13.4034 7.45431 12.6959C7.7482 11.9884 8.17993 11.3465 8.72434 10.8075C9.25626 10.2746 9.88841 9.85221 10.5844 9.56477C11.2803 9.27733 12.0263 9.13051 12.7792 9.13276H13.0968V9.42563C13.0968 9.91794 13.2924 10.3901 13.6405 10.7382C13.9886 11.0863 14.4608 11.2819 14.9531 11.2819C15.4454 11.2819 15.9175 11.0863 16.2657 10.7382C16.6138 10.3901 16.8093 9.91794 16.8093 9.42563V9.13276H28.05V9.42563C28.05 9.91794 28.2455 10.3901 28.5936 10.7382C28.9418 11.0863 29.4139 11.2819 29.9062 11.2819C30.3985 11.2819 30.8707 11.0863 31.2188 10.7382C31.5669 10.3901 31.7625 9.91794 31.7625 9.42563V9.13276H43.0031V9.42563C43.0031 9.91794 43.1987 10.3901 43.5468 10.7382C43.8949 11.0863 44.367 11.2819 44.8593 11.2819C45.3517 11.2819 45.8238 11.0863 46.1719 10.7382C46.52 10.3901 46.7156 9.91794 46.7156 9.42563V9.13276H47.0043C50.2012 9.13276 52.8 11.7336 52.8 14.9284V26.499C52.8 26.9913 52.9955 27.4635 53.3436 27.8116C53.6918 28.1597 54.1639 28.3553 54.6562 28.3553C55.1485 28.3553 55.6207 28.1597 55.9688 27.8116C56.3169 27.4635 56.5125 26.9913 56.5125 26.499V14.9284C56.5097 12.4075 55.5071 9.99067 53.7246 8.20814C51.9421 6.42561 49.5252 5.42299 47.0043 5.42026H46.7156V5.12738C46.7156 4.63508 46.52 4.16293 46.1719 3.81482C45.8238 3.4667 45.3517 3.27113 44.8593 3.27113C44.367 3.27113 43.8949 3.4667 43.5468 3.81482C43.1987 4.16293 43.0031 4.63508 43.0031 5.12738V5.42026H31.7625V5.12738C31.7625 4.63508 31.5669 4.16293 31.2188 3.81482C30.8707 3.4667 30.3985 3.27113 29.9062 3.27113C29.4139 3.27113 28.9418 3.4667 28.5936 3.81482C28.2455 4.16293 28.05 4.63508 28.05 5.12738V5.42026H16.8093V5.12738C16.8093 4.63508 16.6138 4.16293 16.2657 3.81482C15.9175 3.4667 15.4454 3.27113 14.9531 3.27113C14.4608 3.27113 13.9886 3.4667 13.6405 3.81482C13.2924 4.16293 13.0968 4.63508 13.0968 5.12738V5.42026H12.771C11.533 5.41729 10.3068 5.65923 9.16272 6.13214C8.01868 6.60504 6.97948 7.29958 6.10497 8.17576C5.21298 9.05905 4.50561 10.111 4.02405 11.2703C3.54248 12.4296 3.29635 13.6731 3.29997 14.9284V53.2084C3.3027 55.7293 4.30532 58.1461 6.08785 59.9286C7.87037 61.7112 10.2872 62.7138 12.8081 62.7165H26.5443C27.0366 62.7165 27.5088 62.5209 27.8569 62.1728C28.205 61.8247 28.4006 61.3526 28.4006 60.8603C28.4006 60.3679 28.205 59.8958 27.8569 59.5477C27.5088 59.1996 27.0366 59.004 26.5443 59.004Z" fill="white"/>
<path d="M38.9812 20.8354C38.9812 20.5916 38.9332 20.3502 38.84 20.125C38.7467 19.8998 38.6099 19.6952 38.4376 19.5228C38.2652 19.3504 38.0606 19.2137 37.8354 19.1204C37.6101 19.0271 37.3688 18.9791 37.125 18.9791H16.6712C16.1789 18.9791 15.7067 19.1747 15.3586 19.5228C15.0105 19.8709 14.8149 20.3431 14.8149 20.8354C14.8149 21.3277 15.0105 21.7998 15.3586 22.1479C15.7067 22.4961 16.1789 22.6916 16.6712 22.6916H37.125C37.6173 22.6916 38.0895 22.4961 38.4376 22.1479C38.7857 21.7998 38.9812 21.3277 38.9812 20.8354ZM16.6712 29.8073C16.1789 29.8073 15.7067 30.0028 15.3586 30.3509C15.0105 30.699 14.8149 31.1712 14.8149 31.6635C14.8149 32.1558 15.0105 32.628 15.3586 32.9761C15.7067 33.3242 16.1789 33.5198 16.6712 33.5198H25.8658C26.3581 33.5198 26.8303 33.3242 27.1784 32.9761C27.5265 32.628 27.7221 32.1558 27.7221 31.6635C27.7221 31.1712 27.5265 30.699 27.1784 30.3509C26.8303 30.0028 26.3581 29.8073 25.8658 29.8073H16.6712ZM60.7282 34.7985C58.1872 32.2554 53.7508 32.2554 51.2098 34.7985L34.7552 51.2531C34.2251 51.7807 33.8732 52.4607 33.7487 53.1981L32.8494 58.5337C32.7546 59.0988 32.796 59.6784 32.9704 60.2242C33.1448 60.77 33.4471 61.2662 33.852 61.6716C34.257 62.0769 34.7529 62.3797 35.2986 62.5546C35.8442 62.7296 36.4237 62.7716 36.9889 62.6773L42.3287 61.776C43.0691 61.6502 43.7436 61.3037 44.2695 60.7736L60.7262 44.3169C61.3527 43.6934 61.8494 42.9518 62.1875 42.1351C62.5256 41.3183 62.6984 40.4427 62.6959 39.5588C62.7 38.6744 62.5282 37.7981 62.1904 36.9809C61.8526 36.1636 61.3556 35.4218 60.7282 34.7985ZM41.712 58.1151L36.5124 59.1525L37.3808 53.8787L49.1762 42.0833L53.4497 46.3547L41.712 58.1151ZM58.1027 41.6914L56.0691 43.7291L51.7997 39.4598L53.8354 37.4241C54.4046 36.8548 55.1636 36.5413 55.968 36.5413C56.7724 36.5413 57.5314 36.8548 58.1006 37.4241C59.2804 38.5997 59.2804 40.5137 58.1027 41.6914Z" fill="white"/>
</svg>
