<svg width="66" height="66" viewBox="0 0 66 66" fill="none" xmlns="http://www.w3.org/2000/svg">
<path d="M43.175 32.2217C45.8806 30.106 47.8586 27.1986 48.833 23.9051C49.8075 20.6116 49.7298 17.096 48.6109 13.8487C47.492 10.6014 45.3876 7.78422 42.5912 5.79C39.7947 3.79578 36.4457 2.72394 33.011 2.72394C29.5763 2.72394 26.2273 3.79578 23.4308 5.79C20.6344 7.78422 18.53 10.6014 17.4111 13.8487C16.2922 17.096 16.2145 20.6116 17.189 23.9051C18.1634 27.1986 20.1414 30.106 22.847 32.2217C17.7352 34.2557 13.3503 37.775 10.2582 42.3254C7.16614 46.8758 5.50876 52.2484 5.5 57.75V60.5C5.5 61.2293 5.78973 61.9288 6.30546 62.4445C6.82118 62.9603 7.52065 63.25 8.25 63.25H57.75C58.4793 63.25 59.1788 62.9603 59.6945 62.4445C60.2103 61.9288 60.5 61.2293 60.5 60.5V57.75C60.493 52.251 58.8389 46.8801 55.7509 42.33C52.6629 37.7799 48.2827 34.2592 43.175 32.2217ZM22 19.25C22 17.0744 22.6451 14.9477 23.8538 13.1387C25.0625 11.3298 26.7805 9.91989 28.7905 9.08733C30.8005 8.25476 33.0122 8.03692 35.146 8.46136C37.2798 8.8858 39.2398 9.93345 40.7782 11.4718C42.3166 13.0102 43.3642 14.9702 43.7886 17.104C44.2131 19.2378 43.9952 21.4495 43.1627 23.4595C42.3301 25.4695 40.9202 27.1875 39.1113 28.3962C37.3023 29.6049 35.1756 30.25 33 30.25C30.0826 30.25 27.2847 29.0911 25.2218 27.0282C23.1589 24.9653 22 22.1674 22 19.25ZM11 57.75C11 51.9152 13.3179 46.3195 17.4437 42.1936C21.5695 38.0678 27.1652 35.75 33 35.75C38.8348 35.75 44.4305 38.0678 48.5564 42.1936C52.6822 46.3195 55 51.9152 55 57.75H11Z" fill="white"/>
</svg>
