<svg width="66" height="66" viewBox="0 0 66 66" fill="none" xmlns="http://www.w3.org/2000/svg">
<g clip-path="url(#clip0_116_8570)">
<path d="M27.4998 66C21.8158 66 17.1873 61.3745 17.1873 55.6875C17.1873 54.549 18.1113 53.625 19.2498 53.625C20.3883 53.625 21.3123 54.549 21.3123 55.6875C21.3123 59.1006 24.0898 61.875 27.4998 61.875C30.9097 61.875 33.6873 59.1006 33.6873 55.6875C33.6873 54.549 34.6113 53.625 35.7498 53.625C36.8883 53.625 37.8123 54.549 37.8123 55.6875C37.8123 61.3745 33.1843 66 27.4998 66Z" fill="white"/>
<path d="M50.1873 57.75H4.81233C2.15867 57.75 9.13936e-07 55.5913 9.13936e-07 52.9377C-0.000427534 52.2426 0.149789 51.5557 0.440308 50.9243C0.730826 50.2928 1.15474 49.7318 1.68287 49.28C1.75184 49.2195 1.82596 49.1646 1.90291 49.1148C5.93974 45.5921 8.25 40.5239 8.25 35.1723V27.4998C8.25 18.5434 14.3192 10.8543 23.0093 8.79992C24.12 8.54404 25.2313 9.22338 25.4928 10.3347C25.7535 11.443 25.0662 12.5538 23.961 12.8151C17.138 14.4264 12.375 20.4654 12.375 27.4998V35.1723C12.375 41.8165 9.46249 48.1032 4.39184 52.4174C4.35059 52.4508 4.31488 52.481 4.27054 52.5111C4.17499 52.6327 4.12366 52.7831 4.125 52.9377C4.125 53.3112 4.43876 53.625 4.81233 53.625H50.1873C50.5614 53.625 50.8752 53.3112 50.8752 52.9377C50.8752 52.7448 50.8036 52.6048 50.7267 52.5111C50.6854 52.481 50.6466 52.4508 50.6083 52.4175C48.1444 50.3168 46.1997 47.7814 44.8308 44.88C44.3412 43.8513 44.7809 42.6222 45.8121 42.1328C46.0569 42.0166 46.3222 41.9499 46.5928 41.9365C46.8634 41.9231 47.134 41.9633 47.389 42.0548C47.644 42.1462 47.8785 42.2872 48.0789 42.4695C48.2793 42.6518 48.4418 42.8718 48.5569 43.1171C49.6455 45.4163 51.1718 47.4349 53.1023 49.1233C53.1738 49.1727 53.2483 49.2252 53.3112 49.28C53.8412 49.7306 54.2668 50.2912 54.5585 50.9229C54.8501 51.5545 55.0008 52.242 55.0002 52.9377C55.0002 55.5913 52.8415 57.75 50.1873 57.75Z" fill="white"/>
<path d="M48.1249 35.7498C38.2691 35.7498 30.2502 27.731 30.2502 17.8752C30.2502 8.01887 38.2691 0 48.1249 0C57.9812 0 66.0001 8.01887 66.0001 17.8752C66.0001 27.731 57.9812 35.7498 48.1249 35.7498ZM48.1249 4.125C40.5431 4.125 34.3752 10.2934 34.3752 17.8752C34.3752 25.4569 40.5431 31.6248 48.1249 31.6248C55.7067 31.6248 61.8751 25.4569 61.8751 17.8752C61.8751 10.2934 55.7067 4.125 48.1249 4.125Z" fill="white"/>
<path d="M48.8127 26.1252C47.6742 26.1252 46.7502 25.2012 46.7502 24.0627V15.1248H45.375C44.2365 15.1248 43.3125 14.2008 43.3125 13.0623C43.3125 11.9238 44.2365 10.9998 45.375 10.9998H48.8127C49.9512 10.9998 50.8752 11.9238 50.8752 13.0623V24.0627C50.8752 25.2012 49.9512 26.1252 48.8127 26.1252Z" fill="white"/>
</g>
<defs>
<clipPath id="clip0_116_8570">
<rect width="66" height="66" fill="white"/>
</clipPath>
</defs>
</svg>
