<svg width="66" height="66" viewBox="0 0 66 66" fill="none" xmlns="http://www.w3.org/2000/svg">
<path d="M49.9675 44.6875H16.0325V48.8125H49.9675V44.6875ZM48.3313 24.4145L49.28 32.7882L53.3775 32.3235L52.4315 23.9525L48.3313 24.4145ZM16.72 32.7882L17.6688 24.4145L13.5685 23.9525L12.6225 32.3235L16.72 32.7882ZM13.8243 39.5065C15.433 37.6145 16.4368 35.2715 16.72 32.7882L12.6225 32.3235C12.4369 33.9861 11.7611 35.556 10.681 36.8335L13.8243 39.5065ZM49.28 32.7882C49.5574 35.2654 50.5654 37.604 52.1758 39.5065L55.319 36.8335C54.2387 35.5561 53.5629 33.9862 53.3775 32.3235L49.28 32.7882ZM16.0325 44.6875C13.5933 44.6875 12.045 41.602 13.8243 39.5065L10.681 36.8335C6.77601 41.426 9.8395 48.8125 16.0325 48.8125V44.6875ZM49.9675 48.8125C56.1605 48.8125 59.2213 41.4287 55.319 36.8335L52.1758 39.5065C53.9578 41.602 52.4068 44.6875 49.9675 44.6875V48.8125ZM52.4315 23.9525C51.2875 13.8738 42.977 6.1875 33 6.1875V10.3125C40.7825 10.3125 47.4155 16.3268 48.3313 24.4145L52.4315 23.9525ZM17.6688 24.4145C18.5845 16.3268 25.2175 10.3125 33 10.3125V6.1875C23.023 6.1875 14.7125 13.8738 13.5685 23.9525L17.6688 24.4145ZM43.1805 52.9733C43.2853 52.7177 43.3376 52.4438 43.3345 52.1676C43.3314 51.8915 43.2729 51.6188 43.1624 51.3657C43.0519 51.1126 42.8917 50.8842 42.6913 50.6942C42.4909 50.5042 42.2544 50.3564 41.9957 50.2595C41.7371 50.1626 41.4617 50.1186 41.1858 50.1302C40.9098 50.1418 40.6391 50.2086 40.3895 50.3268C40.1399 50.445 39.9165 50.6121 39.7328 50.8182C39.549 51.0244 39.4084 51.2653 39.3195 51.5267L43.1805 52.9733ZM26.6805 51.5267C26.5916 51.2653 26.4511 51.0244 26.2673 50.8182C26.0835 50.6121 25.8601 50.445 25.6105 50.3268C25.361 50.2086 25.0902 50.1418 24.8142 50.1302C24.5383 50.1186 24.2629 50.1626 24.0043 50.2595C23.7457 50.3564 23.5091 50.5042 23.3087 50.6942C23.1083 50.8842 22.9481 51.1126 22.8376 51.3657C22.7271 51.6188 22.6686 51.8915 22.6655 52.1676C22.6624 52.4438 22.7147 52.7177 22.8195 52.9733L26.6805 51.5267ZM39.3195 51.5267C38.4313 53.8918 35.9838 55.6875 33 55.6875V59.8125C37.6338 59.8125 41.668 57.0158 43.1805 52.9733L39.3195 51.5267ZM33 55.6875C30.0163 55.6875 27.5688 53.8945 26.6805 51.5267L22.8195 52.9733C24.332 57.0158 28.3663 59.8125 33 59.8125V55.6875Z" fill="white"/>
</svg>
