<svg width="66" height="66" viewBox="0 0 66 66" fill="none" xmlns="http://www.w3.org/2000/svg">
<path d="M27.5266 29.8249C28.1517 29.8249 28.7513 29.5766 29.1933 29.1345C29.6354 28.6925 29.8837 28.0929 29.8837 27.4678C29.8824 27.0085 29.9827 26.5545 30.1776 26.1386C30.3725 25.7227 30.657 25.355 31.0108 25.0621C31.3645 24.7692 31.7788 24.5582 32.2238 24.4443C32.6688 24.3304 33.1334 24.3165 33.5844 24.4035C34.8078 24.6156 35.8497 25.6599 36.0642 26.8832C36.1723 27.4665 36.1128 28.0684 35.8925 28.6192C35.6722 29.1699 35.3001 29.6469 34.8196 29.9946C32.1654 31.9157 30.6427 34.7325 30.6427 37.7756C30.6427 39.0767 31.6987 40.1091 32.9999 40.1091C34.301 40.1091 35.357 39.0272 35.357 37.7284C35.357 36.2646 36.1679 34.8386 37.5822 33.8156C38.7827 32.9521 39.7137 31.7657 40.267 30.3942C40.8202 29.0228 40.9731 27.5225 40.7077 26.0676C40.415 24.5028 39.6559 23.0631 38.5302 21.9374C37.4046 20.8117 35.9648 20.0527 34.4 19.7599C33.2677 19.5575 32.1048 19.6057 30.993 19.9009C29.8813 20.1961 28.8477 20.7313 27.965 21.4689C27.0886 22.2034 26.384 23.1213 25.901 24.1578C25.4179 25.1944 25.1682 26.3242 25.1694 27.4678C25.1694 28.0929 25.4178 28.6925 25.8598 29.1345C26.3019 29.5766 26.9014 29.8249 27.5266 29.8249ZM34.6617 42.3319C34.2171 41.8985 33.6207 41.656 32.9999 41.656C32.379 41.656 31.7827 41.8985 31.3381 42.3319C30.3575 43.3149 30.4848 44.9083 31.3381 45.6791C32.3375 46.6785 33.839 46.4994 34.6617 45.6791C35.4466 44.8941 35.6917 43.4799 34.6617 42.3319Z" fill="white"/>
<path d="M6.28879 59.7229C6.56372 59.9978 6.90237 60.2004 7.27456 60.3127C7.64675 60.4249 8.04094 60.4434 8.422 60.3664L21.2543 57.7712C24.9212 59.5114 28.9293 60.414 32.9881 60.4136C48.1045 60.4136 60.4017 48.1164 60.4017 33C60.4017 17.8836 48.1045 5.58643 32.9881 5.58643C17.8859 5.58643 5.59814 17.8836 5.59814 33C5.59814 37.0802 6.51036 41.1274 8.24286 44.7574L5.64529 57.5897C5.5681 57.9708 5.58648 58.365 5.69876 58.7373C5.81105 59.1095 6.01376 59.4481 6.28879 59.7229ZM32.9881 10.3007C45.5046 10.3007 55.6874 20.4836 55.6874 33C55.6874 45.5164 45.5046 55.6993 32.9881 55.6993C29.3973 55.7014 25.8578 54.8464 22.6639 53.2054C22.1865 52.9592 21.6395 52.8827 21.1129 52.9886L10.9701 55.0393L13.0208 44.8989C13.1288 44.3728 13.054 43.8256 12.8086 43.3479C11.1524 40.1509 10.2951 36.6004 10.3101 33C10.3101 20.4836 20.4835 10.3007 32.9881 10.3007Z" fill="white"/>
</svg>
