<svg width="37" height="37" viewBox="0 0 37 37" fill="none" xmlns="http://www.w3.org/2000/svg">
<path fill-rule="evenodd" clip-rule="evenodd" d="M7.75775 28.5222C7.80711 28.5222 7.8558 28.5108 7.9 28.4888C7.94421 28.4669 7.98274 28.435 8.01257 28.3957C8.0424 28.3563 8.06273 28.3106 8.07196 28.2622C8.0812 28.2137 8.07908 28.1637 8.06579 28.1162C7.80767 27.1906 7.67717 26.2341 7.6779 25.2732C7.6779 19.4466 12.4084 14.7161 18.235 14.7161C24.0616 14.7161 28.7921 19.4466 28.7921 25.2732C28.7921 26.2578 28.6572 27.2113 28.4044 28.1162C28.3911 28.1637 28.3891 28.2137 28.3983 28.2621C28.4075 28.3106 28.4279 28.3563 28.4577 28.3956C28.4875 28.4349 28.526 28.4668 28.5702 28.4887C28.6144 28.5107 28.6631 28.5221 28.7124 28.5222H33.5908C34.3544 28.5222 35.0868 28.2188 35.6267 27.6789C36.1667 27.1389 36.47 26.4066 36.47 25.643V2.87921C36.47 2.1156 36.1667 1.38326 35.6267 0.843302C35.0868 0.303345 34.3544 0 33.5908 0H2.87921C2.11562 8.14366e-05 1.38333 0.303452 0.843392 0.843392C0.303452 1.38333 8.14366e-05 2.11562 0 2.87921V25.643C0 26.4066 0.303345 27.1389 0.843302 27.6789C1.38326 28.2188 2.1156 28.5222 2.87921 28.5222H7.75775Z" fill="#E2E7F6"/>
<path fill-rule="evenodd" clip-rule="evenodd" d="M13.9452 15.6255C8.83145 17.0689 5.0791 21.7727 5.0791 27.346C5.0791 27.7424 5.09799 28.1346 5.1353 28.5222H7.75807C7.80743 28.5222 7.85612 28.5108 7.90033 28.4888C7.94453 28.4669 7.98306 28.435 8.01289 28.3957C8.04272 28.3564 8.06305 28.3107 8.07228 28.2622C8.08152 28.2137 8.07941 28.1637 8.06611 28.1162C7.808 27.1906 7.67749 26.2341 7.67823 25.2732C7.67823 20.9738 10.254 17.271 13.9452 15.6255Z" fill="#D1D9F0"/>
<path d="M18.2351 36.4702C24.419 36.4702 29.4321 31.4571 29.4321 25.2732C29.4321 19.0892 24.419 14.0762 18.2351 14.0762C12.0511 14.0762 7.03809 19.0892 7.03809 25.2732C7.03809 31.4571 12.0511 36.4702 18.2351 36.4702Z" fill="#D2996F"/>
<path fill-rule="evenodd" clip-rule="evenodd" d="M9.34259 12.7967H27.1275C27.8337 12.7967 28.4071 12.2233 28.4071 11.5169C28.407 11.1776 28.2721 10.8522 28.0322 10.6123C27.7922 10.3723 27.4668 10.2375 27.1275 10.2373H9.34259C9.00327 10.2375 8.67789 10.3723 8.43795 10.6123C8.19802 10.8522 8.06315 11.1776 8.06299 11.5169C8.06299 12.2233 8.63637 12.7967 9.34259 12.7967Z" fill="#2F3E4F"/>
<path fill-rule="evenodd" clip-rule="evenodd" d="M0 8.05458H17.2206C17.5851 8.05459 17.945 7.97292 18.2738 7.81558C18.6027 7.65824 18.892 7.42922 19.1207 7.14536L19.2609 6.97138C19.4296 6.76192 19.6431 6.59294 19.8857 6.47684C20.1283 6.36073 20.3938 6.30048 20.6628 6.30049H36.47V2.87921C36.47 2.1156 36.1667 1.38326 35.6267 0.843302C35.0868 0.303345 34.3544 0 33.5908 0H2.87921C2.11562 8.14366e-05 1.38333 0.303452 0.843392 0.843392C0.303452 1.38333 8.14366e-05 2.11562 0 2.87921V8.05458Z" fill="#F3AA71"/>
<path d="M4.49185 5.66059C5.37241 5.66059 6.08625 4.94675 6.08625 4.0662C6.08625 3.18564 5.37241 2.4718 4.49185 2.4718C3.6113 2.4718 2.89746 3.18564 2.89746 4.0662C2.89746 4.94675 3.6113 5.66059 4.49185 5.66059Z" fill="#FF005D"/>
<path d="M9.43521 5.66059C10.3158 5.66059 11.0296 4.94675 11.0296 4.0662C11.0296 3.18564 10.3158 2.4718 9.43521 2.4718C8.55466 2.4718 7.84082 3.18564 7.84082 4.0662C7.84082 4.94675 8.55466 5.66059 9.43521 5.66059Z" fill="#0ECF75"/>
<path d="M14.3776 5.66059C15.2582 5.66059 15.972 4.94675 15.972 4.0662C15.972 3.18564 15.2582 2.4718 14.3776 2.4718C13.497 2.4718 12.7832 3.18564 12.7832 4.0662C12.7832 4.94675 13.497 5.66059 14.3776 5.66059Z" fill="#00A1FF"/>
<path fill-rule="evenodd" clip-rule="evenodd" d="M21.4349 4.46887H32.8215C33.5277 4.46887 34.1011 3.89548 34.1011 3.18927C34.1011 2.48305 33.5277 1.90967 32.8215 1.90967H21.4349C20.7287 1.90967 20.1553 2.48305 20.1553 3.18927C20.1553 3.89548 20.7287 4.46887 21.4349 4.46887Z" fill="#D9DEFB"/>
<path d="M17.7781 35.1189C22.7798 35.1189 26.8345 31.0642 26.8345 26.0625C26.8345 21.0608 22.7798 17.0061 17.7781 17.0061C12.7764 17.0061 8.72168 21.0608 8.72168 26.0625C8.72168 31.0642 12.7764 35.1189 17.7781 35.1189Z" fill="#C4895E"/>
<path d="M18.235 34.0405C23.077 34.0405 27.0023 30.1152 27.0023 25.2732C27.0023 20.4312 23.077 16.506 18.235 16.506C13.393 16.506 9.46777 20.4312 9.46777 25.2732C9.46777 30.1152 13.393 34.0405 18.235 34.0405Z" fill="#D9DEFB"/>
<path fill-rule="evenodd" clip-rule="evenodd" d="M16.9098 20.8711C16.9098 20.8711 16.6653 22.3912 16.5549 23.7371C16.4719 24.7507 16.4778 25.6477 16.4778 25.6477C16.4778 25.8214 16.512 25.9934 16.5785 26.1539C16.6449 26.3143 16.7423 26.4602 16.8652 26.583C16.988 26.7058 17.1338 26.8033 17.2943 26.8697C17.4547 26.9362 17.6267 26.9704 17.8004 26.9704C17.8004 26.9704 18.5774 26.938 19.4592 26.851C20.6262 26.7356 21.9471 26.5385 21.9471 26.5385C22.4387 26.5385 22.8378 26.1394 22.8378 25.6477C22.8378 25.1561 22.4387 24.757 21.9471 24.757C21.9471 24.757 20.6262 24.5599 19.4592 24.4445C19.3334 24.4321 19.2099 24.4209 19.0905 24.4106C19.0796 24.1987 19.0651 23.971 19.0461 23.7371C18.9357 22.3912 18.6912 20.8711 18.6912 20.8711C18.6911 20.6349 18.5973 20.4083 18.4302 20.2413C18.2632 20.0743 18.0367 19.9804 17.8004 19.9803C17.5642 19.9804 17.3377 20.0743 17.1707 20.2414C17.0037 20.4084 16.9099 20.6349 16.9098 20.8711ZM17.9161 34.0346C18.1293 34.0422 18.3427 34.0422 18.5559 34.0346V32.2613C18.5541 32.1776 18.5196 32.098 18.4598 32.0395C18.4 31.981 18.3197 31.9483 18.236 31.9483C18.1523 31.9483 18.072 31.981 18.0122 32.0395C17.9524 32.098 17.9179 32.1776 17.9161 32.2613V34.0346ZM11.8157 31.2409C11.961 31.3971 12.112 31.5481 12.2682 31.6934L13.5208 30.4407C13.5779 30.3801 13.6092 30.2997 13.608 30.2164C13.6069 30.1331 13.5732 30.0536 13.5144 29.9947C13.4555 29.9358 13.3759 29.9022 13.2927 29.901C13.2094 29.8998 13.1289 29.9311 13.0684 29.9883L11.8157 31.2409ZM24.2038 31.6934C24.36 31.5481 24.5109 31.3971 24.6562 31.2409L23.4036 29.9883C23.3431 29.9311 23.2626 29.8998 23.1793 29.901C23.0961 29.9022 23.0165 29.9358 22.9577 29.9947C22.8988 30.0536 22.8652 30.1331 22.864 30.2164C22.8628 30.2997 22.8941 30.3801 22.9512 30.4407L24.2038 31.6934ZM26.9973 24.9531H25.2242C25.0476 24.9531 24.9042 25.0966 24.9042 25.2731C24.9042 25.4496 25.0476 25.593 25.2242 25.593H26.9973C27.0053 25.3798 27.0053 25.1663 26.9973 24.9531ZM9.47452 24.9531C9.46683 25.1664 9.46683 25.3798 9.47452 25.593H11.2478C11.3314 25.5912 11.411 25.5567 11.4695 25.4969C11.528 25.4371 11.5608 25.3567 11.5608 25.2731C11.5608 25.1894 11.528 25.1091 11.4695 25.0493C11.411 24.9895 11.3314 24.955 11.2478 24.9531H9.47452ZM24.2038 18.8529L22.9512 20.1055C22.8941 20.166 22.8628 20.2465 22.864 20.3297C22.8652 20.413 22.8988 20.4925 22.9577 20.5514C23.0165 20.6103 23.0961 20.6439 23.1793 20.6451C23.2626 20.6463 23.3431 20.615 23.4036 20.5578L24.6562 19.3053C24.5109 19.149 24.36 18.9981 24.2038 18.8529ZM12.2682 18.8529C12.1119 18.9981 11.961 19.149 11.8157 19.3053L13.0684 20.5578C13.1289 20.615 13.2094 20.6463 13.2927 20.6451C13.3759 20.6439 13.4555 20.6103 13.5144 20.5514C13.5732 20.4925 13.6069 20.413 13.608 20.3297C13.6092 20.2465 13.5779 20.166 13.5208 20.1055L12.2682 18.8529ZM17.9161 16.5117V18.2849C17.9161 18.4615 18.0595 18.6049 18.2359 18.6049L18.2381 18.6047C18.3225 18.6042 18.4034 18.5702 18.4629 18.5103C18.5225 18.4504 18.5559 18.3693 18.5559 18.2849V16.5117C18.3427 16.5037 18.1293 16.5037 17.9161 16.5117Z" fill="#2F3E4F"/>
</svg>
