<svg width="66" height="66" viewBox="0 0 66 66" fill="none" xmlns="http://www.w3.org/2000/svg">
<path d="M56.622 30.467C56.3384 28.875 56.0548 27.283 55.7713 25.6975C55.6875 26.3613 55.5972 27.0187 55.5134 27.6826C56.8347 25.9424 58.1496 24.1957 59.4709 22.4555C59.6578 22.2105 59.8447 21.9656 60.0316 21.7143C60.1154 21.508 60.2056 21.3018 60.2894 21.0955C60.399 20.7539 60.4119 20.4123 60.3345 20.0643C60.2507 19.4584 60.0058 19.0588 59.6255 18.5818C57.6791 16.1648 55.739 13.7478 53.7925 11.3309C53.5218 10.9957 53.2511 10.6541 52.9804 10.3189C52.4648 9.68085 51.2337 9.35214 50.4732 9.65507C48.3591 10.4994 46.2386 11.3502 44.1246 12.1945C43.8281 12.317 43.5252 12.433 43.2287 12.5555C43.8925 12.6393 44.55 12.7295 45.2138 12.8133L41.6367 10.9377C42.0298 11.4533 42.4295 11.9625 42.8226 12.4781C42.2232 10.4607 41.6302 8.4498 41.0308 6.43242C40.947 6.14882 40.8632 5.85878 40.7795 5.57519C40.4572 4.48593 39.4388 3.68027 38.2916 3.68027H27.7277C26.574 3.68027 25.5621 4.48593 25.2398 5.57519C24.6404 7.59257 24.0474 9.60351 23.448 11.6209C23.3642 11.9045 23.2804 12.1945 23.1966 12.4781C23.5898 11.9625 23.9894 11.4533 24.3826 10.9377L20.8054 12.8133C21.4693 12.7295 22.1267 12.6393 22.7906 12.5555C20.6765 11.7111 18.556 10.8603 16.442 10.016C16.1455 9.89355 15.8425 9.77753 15.5461 9.65507C14.7855 9.35214 13.548 9.68085 13.0388 10.3189C11.0923 12.7359 9.15231 15.1529 7.20582 17.5699C6.93512 17.9051 6.66442 18.2467 6.39371 18.5818C6.02633 19.0394 5.76207 19.4648 5.68473 20.0643C5.61383 20.5799 5.65895 21.276 5.98766 21.7078C7.30895 23.448 8.62379 25.1947 9.94508 26.935C10.132 27.1799 10.3189 27.4248 10.5058 27.6762C10.422 27.0123 10.3318 26.3549 10.248 25.691C9.96442 27.283 9.68082 28.875 9.39723 30.4605C9.79039 29.9449 10.19 29.4357 10.5832 28.9201C8.64313 29.8934 6.69664 30.8601 4.7566 31.8334C4.4859 31.9687 4.20875 32.1041 3.93805 32.2459C3.4482 32.4908 3.08727 32.9935 2.88102 33.4769C2.64899 34.0312 2.62965 34.5598 2.75211 35.1527C3.33219 38.0273 3.9316 40.8955 4.53102 43.7572C4.61481 44.1568 4.6986 44.5564 4.78238 44.9625C4.89195 45.4975 5.28512 45.9809 5.70406 46.3031C6.18102 46.6705 6.65797 46.7994 7.26383 46.8574C9.50035 47.0572 11.7304 47.257 13.967 47.4504C14.2892 47.4762 14.6115 47.5084 14.9338 47.5342L12.7101 46.258C13.5351 47.3924 14.3601 48.5332 15.1787 49.6676C15.0627 49.2357 14.9466 48.7975 14.8242 48.3656C14.5728 50.4281 14.3279 52.4971 14.0765 54.5596C14.0443 54.8496 14.0056 55.1461 13.9734 55.4361C13.8767 56.2547 14.5213 57.3117 15.2496 57.6598L23.2353 61.4689C23.6156 61.6494 23.9894 61.8299 24.3697 62.0103C24.9047 62.2682 25.4138 62.3971 26.0132 62.3133C26.5611 62.2424 27.1025 62.0168 27.4957 61.6043C28.9136 60.1154 30.3316 58.6201 31.7431 57.1312C31.9429 56.9186 32.1492 56.7059 32.349 56.4932C31.7431 56.7445 31.1308 56.9959 30.525 57.2473H35.4685C34.8627 56.9959 34.2504 56.7445 33.6445 56.4932C35.0625 57.982 36.4804 59.4773 37.892 60.9662C38.0918 61.1789 38.298 61.3916 38.4978 61.6043C38.8845 62.0168 39.4324 62.2424 39.9802 62.3133C40.5861 62.3971 41.0695 62.2682 41.6238 62.0103L49.6095 58.2012C49.9898 58.0207 50.3636 57.8402 50.7439 57.6598C51.4722 57.3117 52.1168 56.2482 52.0201 55.4361C51.7687 53.3736 51.5238 51.3047 51.2724 49.2422C51.2402 48.9521 51.2015 48.6557 51.1693 48.3656C51.0533 48.7975 50.9373 49.2357 50.8148 49.6676C51.6398 48.5332 52.4648 47.3924 53.2898 46.258L51.0662 47.5342C53.3027 47.3344 55.5328 47.1346 57.7693 46.9412C58.0916 46.9154 58.4138 46.8832 58.7361 46.8574C59.3226 46.8059 59.8189 46.6705 60.2959 46.3031C60.7148 45.9809 61.108 45.4975 61.2175 44.9625C61.817 42.0943 62.4164 39.2326 63.0093 36.3644C63.0931 35.9648 63.1769 35.5652 63.2607 35.1592C63.3832 34.5791 63.3638 34.0377 63.1318 33.4834C62.9255 33 62.5646 32.4973 62.0748 32.2523C60.1347 31.2791 58.1882 30.3123 56.2482 29.3391C55.9775 29.2037 55.7004 29.0684 55.4296 28.9266C54.8045 28.6172 54.1341 28.4754 53.4445 28.6687C52.8451 28.8363 52.2006 29.2939 51.9041 29.8547C51.5882 30.4541 51.4271 31.176 51.6463 31.8398C51.8461 32.4521 52.2328 33.0838 52.8322 33.3803C54.7722 34.3535 56.7187 35.3203 58.6588 36.2935C58.9295 36.4289 59.2066 36.5643 59.4773 36.7061C59.0841 35.7328 58.6845 34.766 58.2914 33.7928C57.692 36.6609 57.0925 39.5227 56.4996 42.3908C56.4158 42.7904 56.332 43.19 56.2482 43.5961C57.0797 42.9645 57.9047 42.3328 58.7361 41.7012C56.1838 41.9268 53.6314 42.133 51.0791 42.3844C50.8406 42.4101 50.9566 42.3199 50.383 42.4746C49.6804 42.668 49.255 43.0998 48.8361 43.6605C48.791 43.725 48.7459 43.783 48.7007 43.8475L48.082 44.6982C47.5857 45.3814 47.0894 46.0646 46.5996 46.7478C46.2515 47.2248 45.9679 47.7211 46.0195 48.3721C46.0259 48.4945 46.0517 48.617 46.0646 48.7394C46.1484 49.4613 46.2386 50.1768 46.3224 50.8986C46.5029 52.4133 46.6898 53.9279 46.8703 55.4426L48.1464 53.2189L40.1607 57.0281C39.7804 57.2086 39.4066 57.3891 39.0263 57.5695C40.0705 57.7049 41.1082 57.8402 42.1523 57.9756C41.2564 57.0281 40.3541 56.0871 39.4582 55.1396C38.8974 54.5531 38.3431 53.9666 37.7824 53.3801C37.6341 53.2254 37.4923 53.0707 37.3441 52.916C36.8156 52.3746 36.1324 52.1168 35.3847 52.1039C33.883 52.0846 32.3812 52.1039 30.8795 52.1039C30.0802 52.1039 29.3132 52.2521 28.7009 52.858C28.6171 52.9353 28.5463 53.0256 28.4625 53.1094C27.9726 53.625 27.4828 54.1406 26.9865 54.6627C25.9359 55.7648 24.8853 56.8734 23.8412 57.9756C24.8853 57.8402 25.923 57.7049 26.9671 57.5695L18.9814 53.7603C18.6011 53.5799 18.2273 53.3994 17.847 53.2189L19.1232 55.4426C19.2779 54.16 19.4326 52.8709 19.5873 51.5883C19.6839 50.7697 19.7871 49.9576 19.8838 49.1391C19.974 48.3721 20.0836 47.7469 19.5808 47.0057C18.8074 45.8777 17.9759 44.7756 17.1638 43.667C16.7449 43.0998 16.3195 42.668 15.617 42.4746C15.0433 42.3199 15.1593 42.4037 14.9209 42.3844C14.8693 42.3779 14.8242 42.3779 14.7726 42.3715L14.0959 42.3135C13.2902 42.2426 12.4781 42.1717 11.6724 42.1008C10.2029 41.9719 8.73336 41.8365 7.26383 41.7076C8.09527 42.3393 8.92028 42.9709 9.75172 43.6025C9.15231 40.7344 8.55289 37.8726 7.95992 35.0045C7.87613 34.6049 7.79235 34.2053 7.70856 33.7992C7.31539 34.7725 6.91578 35.7393 6.52262 36.7125C7.715 36.1131 8.91383 35.5201 10.1062 34.9207L12.4265 33.7605C13.2966 33.3223 14.1281 32.9355 14.3601 31.8012C14.6695 30.3187 14.8951 28.8105 15.1593 27.3217C15.2947 26.5676 15.4043 25.7619 14.9338 25.0787C14.8435 24.9498 14.7468 24.8273 14.6502 24.7049C14.1861 24.0926 13.722 23.4803 13.258 22.8615C12.3105 21.6111 11.3695 20.3672 10.422 19.1168C10.2867 20.1609 10.1513 21.1986 10.016 22.2428C11.9625 19.8258 13.9025 17.4088 15.849 14.9918C16.1197 14.6566 16.3904 14.315 16.6611 13.9799C15.8232 14.199 14.9918 14.4246 14.1539 14.6437C15.3011 15.1014 16.4484 15.559 17.5957 16.023C18.8525 16.5258 20.0964 17.0801 21.3726 17.5312C22.4619 17.918 23.5447 17.1961 24.4793 16.7062C25.214 16.3195 25.9552 15.9328 26.69 15.5461C27.3861 15.1852 27.9017 14.6373 28.1466 13.8574C28.1918 13.7221 28.224 13.5867 28.2691 13.4514C28.4818 12.7424 28.688 12.0334 28.9007 11.3309C29.3326 9.87421 29.7644 8.41757 30.1963 6.96738C29.3648 7.59902 28.5398 8.23066 27.7084 8.8623H38.2722C37.4408 8.23066 36.6158 7.59902 35.7843 6.96738C36.1517 8.19843 36.5127 9.42949 36.88 10.667C37.1185 11.4662 37.3506 12.259 37.589 13.0582C37.8662 13.9863 38.0853 14.8887 39.0457 15.4301C40.2058 16.081 41.4047 16.6869 42.5906 17.2863C43.2609 17.6279 44.0537 17.7633 44.7627 17.4797L45.4394 17.209C46.2 16.906 46.967 16.5967 47.7275 16.2937C49.0939 15.7459 50.4603 15.198 51.8267 14.6566C50.9888 14.4375 50.1574 14.2119 49.3195 13.9928C51.266 16.4098 53.206 18.8268 55.1525 21.2437C55.4232 21.5789 55.6939 21.9205 55.9646 22.2557C55.8293 21.2115 55.6939 20.1738 55.5586 19.1297C54.4822 20.5541 53.3994 21.9785 52.323 23.4029C51.9041 23.9572 51.4336 24.4986 51.0533 25.0787C50.5699 25.8199 50.7117 26.6836 50.8535 27.4957C50.9437 27.9984 51.0339 28.4947 51.1242 28.9975C51.2918 29.9514 51.4658 30.9053 51.6334 31.8527C51.7429 32.4521 52.3101 33.0967 52.8193 33.3932C53.3736 33.7154 54.1857 33.8508 54.8045 33.651C55.4296 33.4512 56.0291 33.0644 56.3449 32.465C56.6994 31.8076 56.7445 31.1824 56.622 30.467Z" fill="white"/>
<path d="M32.9999 40.0383C32.581 40.0383 32.1685 40.0125 31.7495 39.9545C31.9751 39.9867 32.2071 40.0189 32.4327 40.0447C31.569 39.9287 30.7311 39.7031 29.9319 39.3615C30.1382 39.4453 30.3444 39.5355 30.5507 39.6193C29.7966 39.2971 29.0876 38.8781 28.4366 38.3818L28.9587 38.7879C28.3142 38.2852 27.7405 37.7115 27.2378 37.067L27.6438 37.5891C27.1411 36.9381 26.7286 36.2291 26.4063 35.475C26.4901 35.6812 26.5804 35.8875 26.6642 36.0937C26.329 35.2945 26.097 34.4566 25.981 33.593C26.0132 33.8186 26.0454 34.0506 26.0712 34.2762C25.9681 33.4447 25.9681 32.6068 26.0712 31.7754C26.039 32.001 26.0067 32.233 25.981 32.4586C26.097 31.5949 26.3226 30.757 26.6642 29.9578C26.5804 30.1641 26.4901 30.3703 26.4063 30.5766C26.7286 29.8225 27.1476 29.1135 27.6438 28.4625L27.2378 28.9846C27.7405 28.34 28.3142 27.7664 28.9587 27.2637L28.4366 27.6697C29.0876 27.167 29.7966 26.7545 30.5507 26.4322C30.3444 26.516 30.1382 26.6062 29.9319 26.69C30.7311 26.3549 31.569 26.1228 32.4327 26.0068C32.2071 26.0391 31.9751 26.0713 31.7495 26.0971C32.581 25.9939 33.4188 25.9939 34.2503 26.0971C34.0247 26.0648 33.7927 26.0326 33.5671 26.0068C34.4308 26.1228 35.2686 26.3484 36.0679 26.69C35.8616 26.6062 35.6554 26.516 35.4491 26.4322C36.2032 26.7545 36.9122 27.1734 37.5632 27.6697L37.0411 27.2637C37.6856 27.7664 38.2593 28.34 38.762 28.9846L38.356 28.4625C38.8587 29.1135 39.2712 29.8225 39.5935 30.5766C39.5097 30.3703 39.4194 30.1641 39.3356 29.9578C39.6708 30.757 39.9028 31.5949 40.0188 32.4586C39.9866 32.233 39.9544 32.001 39.9286 31.7754C40.0317 32.6068 40.0317 33.4447 39.9286 34.2762C39.9608 34.0506 39.9931 33.8186 40.0188 33.593C39.9028 34.4566 39.6772 35.2945 39.3356 36.0937C39.4194 35.8875 39.5097 35.6812 39.5935 35.475C39.2712 36.2291 38.8522 36.9381 38.356 37.5891L38.762 37.067C38.2593 37.7115 37.6856 38.2852 37.0411 38.7879L37.5632 38.3818C36.9122 38.8846 36.2032 39.2971 35.4491 39.6193C35.6554 39.5355 35.8616 39.4453 36.0679 39.3615C35.2686 39.6967 34.4308 39.9287 33.5671 40.0447C33.7927 40.0125 34.0247 39.9803 34.2503 39.9545C33.8313 40.0061 33.4188 40.0318 32.9999 40.0383C31.6528 40.0447 30.3573 41.2178 30.4218 42.6164C30.4862 44.0086 31.5561 45.201 32.9999 45.1945C35.4233 45.1816 37.9177 44.4662 39.8964 43.0418C40.4507 42.6422 40.9921 42.2232 41.4819 41.7463C41.9782 41.2693 42.3972 40.7344 42.8097 40.193C43.5444 39.2326 44.0665 38.1627 44.4854 37.0283C46.1677 32.4586 44.6595 26.8641 40.8825 23.7768C40.354 23.3449 39.8061 22.926 39.2196 22.5715C38.6267 22.217 37.995 21.9463 37.3505 21.682C36.2032 21.2115 34.9915 20.9859 33.754 20.8893C31.337 20.6959 28.7976 21.3404 26.7286 22.5908C24.7306 23.8025 22.9968 25.633 22.0235 27.7728C21.7399 28.4045 21.4692 29.049 21.2759 29.7193C21.0761 30.4219 20.9794 31.1373 20.8892 31.8592C20.7409 33.0967 20.8505 34.3471 21.089 35.5652C21.5466 37.892 22.8163 40.135 24.5308 41.7721C26.2388 43.4092 28.4753 44.6209 30.8278 44.9818C31.5433 45.0914 32.2587 45.1816 32.9806 45.1881C34.3276 45.1945 35.6231 43.9957 35.5587 42.61C35.5136 41.2113 34.4436 40.0447 32.9999 40.0383Z" fill="white"/>
</svg>
