<svg width="66" height="66" viewBox="0 0 66 66" fill="none" xmlns="http://www.w3.org/2000/svg">
<path d="M26.5445 59.004H12.8082C11.2718 59.0018 9.79892 58.3905 8.7125 57.3041C7.62608 56.2177 7.01477 54.7448 7.01259 53.2084V14.9284C7.01033 14.1623 7.16053 13.4034 7.45443 12.6959C7.74833 11.9884 8.18005 11.3465 8.72446 10.8075C9.25638 10.2746 9.88854 9.85219 10.5845 9.56476C11.2804 9.27732 12.0264 9.13049 12.7793 9.13274H13.097V9.42562C13.097 9.91793 13.2925 10.3901 13.6406 10.7382C13.9888 11.0863 14.4609 11.2819 14.9532 11.2819C15.4455 11.2819 15.9177 11.0863 16.2658 10.7382C16.6139 10.3901 16.8095 9.91793 16.8095 9.42562V9.13274H28.0501V9.42562C28.0501 9.91793 28.2457 10.3901 28.5938 10.7382C28.9419 11.0863 29.414 11.2819 29.9063 11.2819C30.3986 11.2819 30.8708 11.0863 31.2189 10.7382C31.567 10.3901 31.7626 9.91793 31.7626 9.42562V9.13274H43.0032V9.42562C43.0032 9.91793 43.1988 10.3901 43.5469 10.7382C43.895 11.0863 44.3672 11.2819 44.8595 11.2819C45.3518 11.2819 45.8239 11.0863 46.172 10.7382C46.5201 10.3901 46.7157 9.91793 46.7157 9.42562V9.13274H47.0045C50.2013 9.13274 52.8001 11.7336 52.8001 14.9284V26.499C52.8001 26.9913 52.9957 27.4634 53.3438 27.8116C53.6919 28.1597 54.164 28.3552 54.6563 28.3552C55.1486 28.3552 55.6208 28.1597 55.9689 27.8116C56.317 27.4634 56.5126 26.9913 56.5126 26.499V14.9284C56.5099 12.4075 55.5072 9.99065 53.7247 8.20812C51.9422 6.4256 49.5253 5.42297 47.0045 5.42024H46.7157V5.12737C46.7157 4.63506 46.5201 4.16292 46.172 3.8148C45.8239 3.46669 45.3518 3.27112 44.8595 3.27112C44.3672 3.27112 43.895 3.46669 43.5469 3.8148C43.1988 4.16292 43.0032 4.63506 43.0032 5.12737V5.42024H31.7626V5.12737C31.7626 4.63506 31.567 4.16292 31.2189 3.8148C30.8708 3.46669 30.3986 3.27112 29.9063 3.27112C29.414 3.27112 28.9419 3.46669 28.5938 3.8148C28.2457 4.16292 28.0501 4.63506 28.0501 5.12737V5.42024H16.8095V5.12737C16.8095 4.63506 16.6139 4.16292 16.2658 3.8148C15.9177 3.46669 15.4455 3.27112 14.9532 3.27112C14.4609 3.27112 13.9888 3.46669 13.6406 3.8148C13.2925 4.16292 13.097 4.63506 13.097 5.12737V5.42024H12.7711C11.5332 5.41728 10.3069 5.65921 9.16284 6.13212C8.0188 6.60503 6.9796 7.29956 6.10509 8.17574C5.2131 9.05904 4.50573 10.111 4.02417 11.2702C3.5426 12.4295 3.29647 13.673 3.30009 14.9284V53.2084C3.30282 55.7292 4.30544 58.1461 6.08797 59.9286C7.8705 61.7111 10.2873 62.7138 12.8082 62.7165H26.5445C27.0368 62.7165 27.5089 62.5209 27.857 62.1728C28.2051 61.8247 28.4007 61.3526 28.4007 60.8602C28.4007 60.3679 28.2051 59.8958 27.857 59.5477C27.5089 59.1996 27.0368 59.004 26.5445 59.004Z" fill="white"/>
<path d="M38.9812 20.8354C38.9812 20.5916 38.9332 20.3502 38.84 20.125C38.7467 19.8998 38.6099 19.6952 38.4376 19.5228C38.2652 19.3504 38.0606 19.2137 37.8354 19.1204C37.6101 19.0271 37.3688 18.9791 37.125 18.9791H16.6712C16.1789 18.9791 15.7067 19.1747 15.3586 19.5228C15.0105 19.8709 14.8149 20.3431 14.8149 20.8354C14.8149 21.3277 15.0105 21.7998 15.3586 22.1479C15.7067 22.496 16.1789 22.6916 16.6712 22.6916H37.125C37.6173 22.6916 38.0895 22.496 38.4376 22.1479C38.7857 21.7998 38.9812 21.3277 38.9812 20.8354ZM16.6712 29.8072C16.1789 29.8072 15.7067 30.0028 15.3586 30.3509C15.0105 30.699 14.8149 31.1712 14.8149 31.6635C14.8149 32.1558 15.0105 32.6279 15.3586 32.9761C15.7067 33.3242 16.1789 33.5197 16.6712 33.5197H25.8658C26.3581 33.5197 26.8303 33.3242 27.1784 32.9761C27.5265 32.6279 27.7221 32.1558 27.7221 31.6635C27.7221 31.1712 27.5265 30.699 27.1784 30.3509C26.8303 30.0028 26.3581 29.8072 25.8658 29.8072H16.6712ZM60.7282 34.7985C58.1872 32.2554 53.7508 32.2554 51.2098 34.7985L34.7552 51.2531C34.2251 51.7806 33.8732 52.4607 33.7487 53.198L32.8494 58.5337C32.7546 59.0988 32.796 59.6784 32.9704 60.2242C33.1448 60.77 33.4471 61.2662 33.852 61.6716C34.257 62.0769 34.7529 62.3797 35.2986 62.5546C35.8442 62.7296 36.4237 62.7716 36.9889 62.6773L42.3287 61.776C43.0691 61.6502 43.7436 61.3037 44.2695 60.7736L60.7262 44.3169C61.3527 43.6934 61.8494 42.9518 62.1875 42.1351C62.5256 41.3183 62.6984 40.4427 62.6959 39.5587C62.7 38.6744 62.5282 37.7981 62.1904 36.9809C61.8526 36.1636 61.3556 35.4218 60.7282 34.7985ZM41.712 58.115L36.5124 59.1525L37.3808 53.8787L49.1762 42.0832L53.4497 46.3547L41.712 58.115ZM58.1027 41.6914L56.0691 43.7291L51.7997 39.4597L53.8354 37.424C54.4046 36.8548 55.1636 36.5413 55.968 36.5413C56.7724 36.5413 57.5314 36.8548 58.1006 37.424C59.2804 38.5997 59.2804 40.5137 58.1027 41.6914Z" fill="white"/>
</svg>
